<svg xmlns="http://www.w3.org/2000/svg" xmlns:xlink="http://www.w3.org/1999/xlink" width="159.563" height="63.867" viewBox="0 0 159.563 63.867">
    <defs>
        <linearGradient id="linear-gradient" x1=".42" y1="1.098" x2=".628" y2=".108" gradientUnits="objectBoundingBox">
            <stop offset=".001" stop-color="#009c00"/>
            <stop offset=".997" stop-color="#36de0d"/>
        </linearGradient>
        <linearGradient id="linear-gradient-2" x1=".322" y1="1.397" x2=".672" y2="-.583" xlink:href="#linear-gradient"/>
        <style>
            .cls-1{fill:#262626}.cls-4{fill:#36de0d}.cls-5{fill:#4b4b4b}
        </style>
    </defs>
    <g id="Group_9" data-name="Group 9" transform="translate(-617.374 -238.603)">
        <g id="Group_1" data-name="Group 1" transform="translate(617.374 244.577)">
            <path id="Path_1" data-name="Path 1" class="cls-1" d="M645.349 284.936v-31.082a2.318 2.318 0 0 0-2.318-2.318H641.1a2.318 2.318 0 0 0-2.317 2.318v35.41a15.233 15.233 0 0 1-.568 3.7 11.114 11.114 0 0 1-1.167 2.686 7.565 7.565 0 0 1-1.535 1.812 6.972 6.972 0 0 1-1.7 1.075 7.718 7.718 0 0 1-1.044.306 4.682 4.682 0 0 1-.46.092 2.8 2.8 0 0 1-.4.031h-.921a6.81 6.81 0 0 1-1.09-.092 7.934 7.934 0 0 1-1.182-.291 6.234 6.234 0 0 1-1.2-.538 6.494 6.494 0 0 1-1.366-1.136 6.957 6.957 0 0 1-1.167-1.765 12.324 12.324 0 0 1-.844-2.5q-.149-.633-.249-1.359a2.307 2.307 0 0 0-2.332-1.977l-1.9.036a2.336 2.336 0 0 0-2.245 2.72 17.376 17.376 0 0 0 .376 1.778 15.237 15.237 0 0 0 1.335 3.408c.072.132.157.238.232.364a2.195 2.195 0 0 1 .563.838 1.98 1.98 0 0 1 .338.325 2.066 2.066 0 0 1 1.461 1.17 2.028 2.028 0 0 1 1.025.669 2.1 2.1 0 0 1 1.395 1.4 11.682 11.682 0 0 0 1.617.7 16.856 16.856 0 0 0 4.743.859h1.802q.614-.031 1.228-.091a8.581 8.581 0 0 0 1.228-.216 13.3 13.3 0 0 0 2.518-.829 13.751 13.751 0 0 0 2.793-1.657 12.109 12.109 0 0 0 2.5-2.595 14.159 14.159 0 0 0 1.857-3.668 18.071 18.071 0 0 0 .891-4.943h4.485v-4.635z" transform="translate(-617.374 -251.536)"/>
            <path id="Path_2" data-name="Path 2" class="cls-1" d="M725.227 300.335h-23.472a4 4 0 0 1-.829.737 8.408 8.408 0 0 1-3.991 1.9 10.674 10.674 0 0 1-1.964.185 11.392 11.392 0 0 1-2.579-.307h-.092l-9.486-2.518h-16.736V295.7h14v-11.788a14.015 14.015 0 0 1 .491-3.807 12.621 12.621 0 0 1 1.335-3.147 10.325 10.325 0 0 1 2.011-2.425 11.717 11.717 0 0 1 2.518-1.7 11.549 11.549 0 0 1 2.625-.967 12.216 12.216 0 0 1 2.809-.322h.276a11.9 11.9 0 0 1 2.548.276 12.574 12.574 0 0 1 2.671.921 11.465 11.465 0 0 1 2.533 1.734 11.156 11.156 0 0 1 2.072 2.517 13.168 13.168 0 0 1 1.412 3.316 16.861 16.861 0 0 1 .584 4.1v.031l.031 10.5v.4a2.249 2.249 0 0 1-.031.369h21.261zm-38.514-3.9 6.171 1.658a5.427 5.427 0 0 0 1.75.338 2.2 2.2 0 0 0 .366-.031 2.437 2.437 0 0 0 1.4-.568 2.732 2.732 0 0 0 .782-1.244 5.411 5.411 0 0 0 .246-1.657l-.031-10.469a13.779 13.779 0 0 0-.338-2.916 9.869 9.869 0 0 0-.829-2.287 6.821 6.821 0 0 0-1.2-1.673 5.885 5.885 0 0 0-1.443-1.073 4.065 4.065 0 0 0-1.658-.4 5.234 5.234 0 0 0-1.658.43 6.252 6.252 0 0 0-2.547 2.625 9.733 9.733 0 0 0-1.013 4.744z" transform="translate(-643.582 -262.3)"/>
            <path id="Path_3" data-name="Path 3" class="cls-1" d="M856.775 273.267a11.261 11.261 0 0 1 3.76 2.364 11.994 11.994 0 0 1 3.445 6.452 2.333 2.333 0 0 1-2.287 2.758h-1.943a2.3 2.3 0 0 1-2.276-1.917 9.594 9.594 0 0 0-.3-1.306 8.305 8.305 0 0 0-1.182-2.455 5.6 5.6 0 0 0-1.673-1.566 3.72 3.72 0 0 0-1.919-.553h-.03a3.842 3.842 0 0 0-1.888.522 5.5 5.5 0 0 0-1.7 1.55 8.91 8.91 0 0 0-1.274 2.6 13.154 13.154 0 0 0-.568 3.653v.03q-.031.615-.031 1.168v1.073a36.55 36.55 0 0 0 .169 3.761 5.712 5.712 0 0 0 .936 2.717 4.913 4.913 0 0 0 2.364 1.719 15.64 15.64 0 0 0 4.451.8h7.168a2.318 2.318 0 0 1 2.318 2.318 2.318 2.318 0 0 1-2.318 2.317h-74.861v-4.635h55.317a7.511 7.511 0 0 1-1.09-1.8 10.98 10.98 0 0 1-.644-2.056 15.967 15.967 0 0 1-.307-2.318q-.077-1.228-.077-2.579v-1.227q0-.646.031-1.321v-.03a15.422 15.422 0 0 1 1.136-5.726 7.623 7.623 0 0 1 2.009-3.25" transform="translate(-708.722 -263.229)"/>
        </g>
        <g id="Group_2" data-name="Group 2" transform="translate(619.117 238.603)">
            <path id="Path_4" data-name="Path 4" d="M916.726 252.98a100.292 100.292 0 0 0-9.345-5.608 46.361 46.361 0 0 0-9.65-3.848 29.378 29.378 0 0 0-5-.92 28.282 28.282 0 0 0-5.1-.085 42.234 42.234 0 0 0-10.469 2.285 21.085 21.085 0 0 1 9.942-5.558 23.532 23.532 0 0 1 11.708.2 29.708 29.708 0 0 1 10.349 5.137 28.538 28.538 0 0 1 7.565 8.397z" transform="translate(-758.905 -238.604)" style="fill:url(#linear-gradient)"/>
            <path id="Path_5" data-name="Path 5" d="M778.967 273.689a21.666 21.666 0 0 0-5.413-.435 31.518 31.518 0 0 0-5.341.578 43.534 43.534 0 0 0-10.11 3.29c-1.577.819-3.194 1.525-4.693 2.484-.755.464-1.534.876-2.266 1.378l-2.186 1.511c-.361.255-.732.493-1.084.762l-1.046.823-2.1 1.625c-1.4 1.118-2.807 2.313-4.218 3.473a192.878 192.878 0 0 1-17.768 13.269q-4.673 3.056-9.641 5.679c-1.633.909-3.333 1.7-5 2.545-1.71.77-3.391 1.6-5.137 2.295a94.386 94.386 0 0 1-44.1 7.205c-14.964-1.178-32.989-3.1-37.71-11.879 6.139 6.632 23.676 6.728 37.948 6.949 1.779.069 3.56-.053 5.335-.067 1.774-.075 3.547-.19 5.315-.309a96.177 96.177 0 0 0 10.511-1.543 105.356 105.356 0 0 0 20.291-6.2 129.3 129.3 0 0 0 19.02-9.733c6.169-3.66 12.008-7.888 17.942-12.106 1.486-1.063 2.941-2.14 4.47-3.2l2.345-1.576a24.588 24.588 0 0 1 2.405-1.482l2.465-1.383c.823-.456 1.7-.825 2.545-1.24a54.287 54.287 0 0 1 5.227-2.151 42.729 42.729 0 0 1 11.051-2.15 25.6 25.6 0 0 1 10.943 1.588z" transform="translate(-621.146 -256.608)" style="fill:url(#linear-gradient-2)"/>
        </g>
        <g id="Group_8" data-name="Group 8" transform="translate(684.035 261.997)">
            <g id="Group_6" data-name="Group 6">
                <g id="Group_3" data-name="Group 3" transform="translate(0 .085)">
                    <path id="Path_6" data-name="Path 6" class="cls-1" d="M764.994 293.153h-1.834l-.29.829h-1.179l1.685-4.549h1.4l1.685 4.549h-1.179zm-1.542-.844h1.248l-.622-1.81z" transform="translate(-761.691 -289.433)"/>
                    <path id="Path_7" data-name="Path 7" class="cls-1" d="M773.322 289.433h1.493l1.036 2.434 1.042-2.434h1.49v4.549h-1.109v-3.328l-1.049 2.454h-.743l-1.048-2.454v3.328h-1.112z" transform="translate(-767.95 -289.433)"/>
                    <path id="Path_8" data-name="Path 8" class="cls-1" d="M788.893 293.153h-1.834l-.289.829h-1.18l1.685-4.549h1.4l1.685 4.549h-1.18zm-1.542-.844h1.249l-.622-1.81z" transform="translate(-774.551 -289.433)"/>
                    <path id="Path_9" data-name="Path 9" class="cls-1" d="M797.221 289.433h1.173v3.667h2.06v.887h-3.233z" transform="translate(-780.81 -289.433)"/>
                </g>
                <g id="Group_5" data-name="Group 5" transform="translate(21.733)">
                    <g id="Group_4" data-name="Group 4">
                        <path id="Path_10" data-name="Path 10" class="cls-4" d="M808.742 289.427h1.173v1.734h1.73v-1.734h1.173v4.549h-1.173v-1.929h-1.73v1.929h-1.173z" transform="translate(-808.742 -289.345)"/>
                        <path id="Path_11" data-name="Path 11" class="cls-4" d="M821.821 289.249a2.31 2.31 0 0 1 1.718.627 2.724 2.724 0 0 1 0 3.465 2.666 2.666 0 0 1-3.436 0 2.72 2.72 0 0 1 0-3.465 2.311 2.311 0 0 1 1.718-.627zm0 .849a.979.979 0 0 0-.832.4 2.243 2.243 0 0 0 0 2.227 1.074 1.074 0 0 0 1.667 0 2.245 2.245 0 0 0 0-2.227.981.981 0 0 0-.835-.398z" transform="translate(-814.521 -289.249)"/>
                        <path id="Path_12" data-name="Path 12" class="cls-4" d="M832.707 292.254v1.722h-1.173v-4.549h1.792a2.279 2.279 0 0 1 1.318.3 1.1 1.1 0 0 1 .418.954 1.2 1.2 0 0 1-.218.74 1.258 1.258 0 0 1-.656.427.871.871 0 0 1 .431.249 2.3 2.3 0 0 1 .385.587l.637 1.291h-1.25l-.554-1.13a1.266 1.266 0 0 0-.34-.467.764.764 0 0 0-.458-.125zm.493-.81a.813.813 0 0 0 .529-.137.566.566 0 0 0 .16-.451.551.551 0 0 0-.16-.445.829.829 0 0 0-.529-.134h-.493v1.168z" transform="translate(-821.006 -289.345)"/>
                    </g>
                </g>
            </g>
            <g id="Group_7" data-name="Group 7" transform="translate(2.237 6.156)">
                <path id="Path_13" data-name="Path 13" class="cls-5" d="M767.012 304.367h-.477v-.267h.477v-.751a.9.9 0 0 1 .067-.371.719.719 0 0 1 .167-.237.589.589 0 0 1 .222-.126.786.786 0 0 1 .231-.038.856.856 0 0 1 .343.06l-.06.259a.6.6 0 0 0-.268-.049c-.269 0-.4.2-.4.612v.642h.537v.268h-.537v2.031h-.3z" transform="translate(-766.535 -302.576)"/>
                <path id="Path_14" data-name="Path 14" class="cls-5" d="M770.359 306.448v-.156c0-.056-.005-.124-.007-.186s0-.122-.007-.177-.005-.1-.005-.126h.3c0 .085.006.169.007.249a.8.8 0 0 0 .012.153 1.019 1.019 0 0 1 .293-.333.731.731 0 0 1 .438-.129.646.646 0 0 1 .086.006l.087.018-.035.293a.367.367 0 0 0-.114-.019.828.828 0 0 0-.336.062.634.634 0 0 0-.234.172.727.727 0 0 0-.137.255 1.08 1.08 0 0 0-.045.316v1.254h-.3z" transform="translate(-768.579 -304.28)"/>
                <path id="Path_15" data-name="Path 15" class="cls-5" d="M775.658 307.668a1.009 1.009 0 0 1-.431.377 1.359 1.359 0 0 1-.564.115 1.219 1.219 0 0 1-.478-.09 1.069 1.069 0 0 1-.368-.251 1.1 1.1 0 0 1-.236-.383 1.39 1.39 0 0 1-.082-.491 1.312 1.312 0 0 1 .084-.476 1.133 1.133 0 0 1 .238-.381 1.106 1.106 0 0 1 .825-.345 1.118 1.118 0 0 1 .466.091 1.027 1.027 0 0 1 .338.245 1.044 1.044 0 0 1 .207.345 1.167 1.167 0 0 1 .07.393v.21H773.8a1 1 0 0 0 .038.241.863.863 0 0 0 .137.286.874.874 0 0 0 .266.238.831.831 0 0 0 .43.1.943.943 0 0 0 .443-.11.794.794 0 0 0 .328-.3zm-.229-.911a.671.671 0 0 0-.062-.288.776.776 0 0 0-.169-.237.819.819 0 0 0-.254-.161.809.809 0 0 0-.311-.06.765.765 0 0 0-.406.1.888.888 0 0 0-.255.228.937.937 0 0 0-.135.251.7.7 0 0 0-.04.167z" transform="translate(-770.282 -304.28)"/>
                <path id="Path_16" data-name="Path 16" class="cls-5" d="M781.644 307.668a1.009 1.009 0 0 1-.431.377 1.359 1.359 0 0 1-.564.115 1.219 1.219 0 0 1-.478-.09 1.069 1.069 0 0 1-.368-.251 1.1 1.1 0 0 1-.236-.383 1.393 1.393 0 0 1-.082-.491 1.309 1.309 0 0 1 .085-.476 1.133 1.133 0 0 1 .238-.381 1.107 1.107 0 0 1 .826-.345 1.118 1.118 0 0 1 .466.091 1.028 1.028 0 0 1 .338.245 1.043 1.043 0 0 1 .207.345 1.165 1.165 0 0 1 .069.393v.21h-1.93a1 1 0 0 0 .038.241.859.859 0 0 0 .4.525.831.831 0 0 0 .43.1.943.943 0 0 0 .443-.11.794.794 0 0 0 .328-.3zm-.229-.911a.67.67 0 0 0-.062-.288.777.777 0 0 0-.169-.237.82.82 0 0 0-.254-.161.81.81 0 0 0-.311-.06.765.765 0 0 0-.406.1.889.889 0 0 0-.255.228.935.935 0 0 0-.135.251.705.705 0 0 0-.04.167z" transform="translate(-773.504 -304.28)"/>
                <path id="Path_17" data-name="Path 17" class="cls-5" d="M785.859 302.706h.3v3.759h-.3z" transform="translate(-776.933 -302.646)"/>
                <path id="Path_18" data-name="Path 18" class="cls-5" d="M790 307.136v.3c0 .087 0 .172.007.248s.008.147.012.213.013.133.023.2h-.279a2.12 2.12 0 0 1-.03-.373h-.01a.84.84 0 0 1-.321.329 1.007 1.007 0 0 1-.484.1 1.159 1.159 0 0 1-.293-.038.739.739 0 0 1-.259-.12.612.612 0 0 1-.258-.524.617.617 0 0 1 .134-.418.832.832 0 0 1 .331-.23 1.577 1.577 0 0 1 .418-.1c.148-.014.278-.022.39-.022h.348v-.139a.489.489 0 0 0-.183-.428.791.791 0 0 0-.463-.129 1.047 1.047 0 0 0-.7.259l-.174-.2a1.072 1.072 0 0 1 .407-.241 1.471 1.471 0 0 1 .468-.082 1.045 1.045 0 0 1 .667.2.758.758 0 0 1 .249.634zm-.6-.19a2.54 2.54 0 0 0-.366.026 1.191 1.191 0 0 0-.318.085.589.589 0 0 0-.226.158.373.373 0 0 0-.084.249.366.366 0 0 0 .048.186.4.4 0 0 0 .121.134.532.532 0 0 0 .167.079.6.6 0 0 0 .187.029.949.949 0 0 0 .393-.07.669.669 0 0 0 .246-.181.648.648 0 0 0 .127-.254 1.23 1.23 0 0 0 .035-.286v-.155z" transform="translate(-778.144 -304.28)"/>
                <path id="Path_19" data-name="Path 19" class="cls-5" d="M793.893 306.448v-.156c0-.056-.006-.124-.008-.186s0-.122-.007-.177-.005-.1-.005-.126h.3c0 .085.006.169.007.249a.808.808 0 0 0 .012.153h.015a.8.8 0 0 1 .3-.325.871.871 0 0 1 .487-.137.966.966 0 0 1 .437.085.7.7 0 0 1 .266.221.825.825 0 0 1 .134.315 1.766 1.766 0 0 1 .038.368v1.368h-.3v-1.352a1.5 1.5 0 0 0-.025-.272.724.724 0 0 0-.087-.236.447.447 0 0 0-.174-.166.592.592 0 0 0-.291-.063.863.863 0 0 0-.311.057.67.67 0 0 0-.254.175.858.858 0 0 0-.169.293 1.275 1.275 0 0 0-.061.415v1.149h-.3z" transform="translate(-781.243 -304.28)"/>
                <path id="Path_20" data-name="Path 20" class="cls-5" d="M801.683 307.762a1.056 1.056 0 0 1-.383.3 1.11 1.11 0 0 1-.463.1 1.294 1.294 0 0 1-.487-.09 1.1 1.1 0 0 1-.383-.251 1.174 1.174 0 0 1-.249-.383 1.363 1.363 0 0 1 0-.97 1.169 1.169 0 0 1 .249-.384 1.108 1.108 0 0 1 .383-.25 1.3 1.3 0 0 1 .487-.09 1.059 1.059 0 0 1 .47.1 1.243 1.243 0 0 1 .385.293l-.239.18a1.022 1.022 0 0 0-.283-.226.694.694 0 0 0-.333-.082.93.93 0 0 0-.378.074.88.88 0 0 0-.288.2.839.839 0 0 0-.182.3 1.1 1.1 0 0 0 0 .731.828.828 0 0 0 .182.3.86.86 0 0 0 .288.2.93.93 0 0 0 .378.075.709.709 0 0 0 .345-.087.914.914 0 0 0 .271-.232z" transform="translate(-784.343 -304.28)"/>
                <path id="Path_21" data-name="Path 21" class="cls-5" d="M806.965 307.668a1.01 1.01 0 0 1-.43.377 1.361 1.361 0 0 1-.564.115 1.22 1.22 0 0 1-.478-.09 1.073 1.073 0 0 1-.368-.251 1.108 1.108 0 0 1-.236-.383 1.4 1.4 0 0 1-.082-.491 1.3 1.3 0 0 1 .085-.476 1.137 1.137 0 0 1 .238-.381 1.159 1.159 0 0 1 .363-.254 1.143 1.143 0 0 1 .463-.091 1.118 1.118 0 0 1 .465.091 1.024 1.024 0 0 1 .545.589 1.164 1.164 0 0 1 .07.393v.21h-1.93a.993.993 0 0 0 .037.241.86.86 0 0 0 .4.525.832.832 0 0 0 .43.1.943.943 0 0 0 .442-.11.792.792 0 0 0 .328-.3zm-.229-.911a.67.67 0 0 0-.062-.288.769.769 0 0 0-.169-.237.822.822 0 0 0-.254-.161.813.813 0 0 0-.311-.06.763.763 0 0 0-.405.1.885.885 0 0 0-.256.228.933.933 0 0 0-.134.251.682.682 0 0 0-.04.167z" transform="translate(-787.129 -304.28)"/>
                <path id="Path_22" data-name="Path 22" class="cls-4" d="M813.172 305.873h.328l.557 1.923h.01l.642-1.923h.284l.681 1.923h.01l.542-1.923h.3l-.677 2.3h-.309l-.686-1.879h-.01l-.641 1.879h-.309z" transform="translate(-791.63 -304.35)"/>
                <path id="Path_23" data-name="Path 23" class="cls-4" d="M821.171 306.95a1.289 1.289 0 0 1 .089-.484 1.162 1.162 0 0 1 .248-.384 1.109 1.109 0 0 1 .383-.25 1.3 1.3 0 0 1 .487-.09 1.281 1.281 0 0 1 .484.09 1.114 1.114 0 0 1 .634.634 1.349 1.349 0 0 1 0 .97 1.121 1.121 0 0 1-.634.634 1.272 1.272 0 0 1-.484.09 1.292 1.292 0 0 1-.487-.09 1.1 1.1 0 0 1-.383-.251 1.167 1.167 0 0 1-.248-.383 1.292 1.292 0 0 1-.089-.486zm.3 0a1.061 1.061 0 0 0 .062.366.842.842 0 0 0 .182.3.869.869 0 0 0 .288.2.987.987 0 0 0 .756 0 .855.855 0 0 0 .47-.5 1.112 1.112 0 0 0 0-.731.867.867 0 0 0-.182-.3.88.88 0 0 0-.288-.2 1 1 0 0 0-.756 0 .889.889 0 0 0-.288.2.853.853 0 0 0-.182.3 1.065 1.065 0 0 0-.064.365z" transform="translate(-795.934 -304.28)"/>
                <path id="Path_24" data-name="Path 24" class="cls-4" d="M827.816 306.448v-.156c0-.056-.006-.124-.008-.186s0-.122-.007-.177-.005-.1-.005-.126h.3c0 .085.006.169.007.249a.8.8 0 0 0 .013.153 1.022 1.022 0 0 1 .293-.333.731.731 0 0 1 .438-.129.643.643 0 0 1 .086.006l.087.018-.034.293a.37.37 0 0 0-.115-.019.828.828 0 0 0-.336.062.633.633 0 0 0-.234.172.726.726 0 0 0-.137.255 1.08 1.08 0 0 0-.045.316v1.254h-.3z" transform="translate(-799.497 -304.28)"/>
                <path id="Path_25" data-name="Path 25" class="cls-4" d="M831.429 302.706h.3v2.506l1.134-1.04h.438l-1.184 1.05 1.323 1.243h-.453l-1.258-1.213v1.213h-.3z" transform="translate(-801.454 -302.646)"/>
            </g>
        </g>
    </g>
</svg>
