<svg xmlns="http://www.w3.org/2000/svg" width="10.192" height="18.022" viewBox="0 0 10.192 18.022">
    <path data-name="Icon material-attach-money" d="M14.967 12.41c-2.273-.591-3-1.2-3-2.153 0-1.091 1.011-1.852 2.7-1.852 1.782 0 2.443.851 2.5 2.1h2.213a3.991 3.991 0 0 0-3.214-3.815V4.5h-3v2.163c-1.942.421-3.5 1.682-3.5 3.614 0 2.313 1.912 3.464 4.706 4.135 2.5.6 3 1.482 3 2.413 0 .691-.491 1.792-2.7 1.792-2.063 0-2.874-.921-2.984-2.1H9.48c.12 2.193 1.762 3.424 3.685 3.835v2.173h3V20.37c1.952-.37 3.5-1.5 3.5-3.554.008-2.844-2.425-3.816-4.698-4.406z" transform="translate(-9.48 -4.5)" style="fill:#656565"/>
</svg>
