<svg xmlns="http://www.w3.org/2000/svg" width="26.981" height="25.632" viewBox="0 0 26.981 25.632">
    <g data-name="Group 4400" transform="translate(-1471 -1259.118)">
        <path data-name="Icon material-work" d="M27.283 8.4h-5.4V5.7a2.689 2.689 0 0 0-2.7-2.7h-5.4a2.689 2.689 0 0 0-2.7 2.7v2.7H5.7a2.677 2.677 0 0 0-2.685 2.7L3 25.934a2.689 2.689 0 0 0 2.7 2.7h21.583a2.689 2.689 0 0 0 2.7-2.7v-14.84a2.689 2.689 0 0 0-2.7-2.694zm-8.094 0h-5.4V5.7h5.4z" transform="translate(1468 1256.118)" style="fill:#60d049"/>
        <rect data-name="Rectangle 4092" width="21" height="14" rx="1" transform="translate(1474 1268)" style="fill:#fff"/>
    </g>
</svg>
