<svg xmlns="http://www.w3.org/2000/svg" width="25.151" height="28.747" viewBox="0 0 25.151 28.747">
    <path data-name="Icon simple-clockify" d="m18.244 9.879 6.513-6.6 1.865 1.889-6.513 6.6-1.867-1.889zm-2.644 6.75a2.289 2.289 0 0 1-1.634-.691 2.38 2.38 0 0 1-.673-1.659 2.308 2.308 0 1 1 4.615 0 2.38 2.38 0 0 1-.674 1.659 2.291 2.291 0 0 1-1.634.691zm11.051 6.821-1.864 1.891-6.513-6.606 1.866-1.889zm-10.976.988a9.726 9.726 0 0 0 3.71-.737l3.181 3.228a13.946 13.946 0 0 1-6.891 1.817A14.275 14.275 0 0 1 1.5 14.373 14.276 14.276 0 0 1 15.674 0a13.947 13.947 0 0 1 6.831 1.78l-3.127 3.174a9.734 9.734 0 0 0-3.7-.734 10.02 10.02 0 0 0-9.929 10.109 10.019 10.019 0 0 0 9.925 10.109z" transform="translate(-1.5)" style="fill:#60d049"/>
</svg>
