<svg xmlns="http://www.w3.org/2000/svg" width="35.35" height="23.567" viewBox="0 0 35.35 23.567">
    <path data-name="Icon awesome-eye" d="M35.136 15.387A19.684 19.684 0 0 0 17.675 4.5 19.687 19.687 0 0 0 .214 15.388a1.985 1.985 0 0 0 0 1.791 19.684 19.684 0 0 0 17.461 10.888 19.687 19.687 0 0 0 17.461-10.888 1.985 1.985 0 0 0 0-1.792zm-17.461 9.734a8.837 8.837 0 1 1 8.837-8.837 8.837 8.837 0 0 1-8.837 8.837zm0-14.729a5.849 5.849 0 0 0-1.553.233 2.937 2.937 0 0 1-4.106 4.106 5.878 5.878 0 1 0 5.659-4.338z" transform="translate(0 -4.5)" style="fill:#262626"/>
</svg>
