<svg data-name="facebook (6)" xmlns="http://www.w3.org/2000/svg" width="30.608" height="30.608" viewBox="0 0 30.608 30.608">
    <path data-name="Path 620" d="M26.782 0H3.826A3.83 3.83 0 0 0 0 3.826v22.956a3.83 3.83 0 0 0 3.826 3.826h22.956a3.83 3.83 0 0 0 3.826-3.826V3.826A3.83 3.83 0 0 0 26.782 0z" style="fill:#1976d2"/>
    <path data-name="Path 621" d="M206.162 105.441h-4.721v-3.777c0-1.042.846-.944 1.888-.944h1.888V96h-3.777a5.664 5.664 0 0 0-5.665 5.665v3.777H192v4.721h3.777v10.386h5.665v-10.387h2.832z" transform="translate(-179.993 -89.94)" style="fill:#fafafa"/>
</svg>
