<svg xmlns="http://www.w3.org/2000/svg" width="30" height="27.525" viewBox="0 0 30 27.525">
    <path data-name="Icon material-favorite-border" d="M24.75 4.5A8.983 8.983 0 0 0 18 7.635 8.983 8.983 0 0 0 11.25 4.5 8.17 8.17 0 0 0 3 12.75c0 5.67 5.1 10.29 12.825 17.31L18 32.025l2.175-1.98C27.9 23.04 33 18.42 33 12.75a8.17 8.17 0 0 0-8.25-8.25zm-6.6 23.325-.15.15-.15-.15C10.71 21.36 6 17.085 6 12.75a5.127 5.127 0 0 1 5.25-5.25 5.864 5.864 0 0 1 5.35 3.54h2.81a5.827 5.827 0 0 1 5.34-3.54A5.127 5.127 0 0 1 30 12.75c0 4.335-4.71 8.61-11.85 15.075z" transform="translate(-3 -4.5)" style="fill:#60d049"/>
</svg>
