<svg xmlns="http://www.w3.org/2000/svg" width="14.903" height="14.903" viewBox="0 0 14.903 14.903">
    <path d="m14.552 5.754-1.145-.249a6.234 6.234 0 0 0-.369-.889l.634-.986a.445.445 0 0 0-.06-.556L11.828 1.29a.445.445 0 0 0-.556-.06l-.986.634A6.234 6.234 0 0 0 9.4 1.5L9.148.35A.445.445 0 0 0 8.713 0H6.19a.445.445 0 0 0-.435.35L5.506 1.5a6.234 6.234 0 0 0-.889.369L3.63 1.23a.445.445 0 0 0-.556.06L1.29 3.075a.445.445 0 0 0-.06.556l.634.986a6.234 6.234 0 0 0-.369.889l-1.144.248A.445.445 0 0 0 0 6.19v2.523a.445.445 0 0 0 .351.435L1.5 9.4a6.234 6.234 0 0 0 .369.889l-.634.986a.445.445 0 0 0 .06.556l1.784 1.784a.445.445 0 0 0 .556.06l.986-.634a6.234 6.234 0 0 0 .889.369l.249 1.145a.445.445 0 0 0 .435.351h2.519a.445.445 0 0 0 .435-.351l.252-1.148a6.234 6.234 0 0 0 .889-.369l.986.634a.445.445 0 0 0 .556-.06l1.784-1.784a.445.445 0 0 0 .06-.556l-.634-.986a6.234 6.234 0 0 0 .369-.889l1.145-.249a.445.445 0 0 0 .351-.435V6.19a.445.445 0 0 0-.354-.436zm-4.429 1.7a2.672 2.672 0 1 1-2.672-2.675 2.675 2.675 0 0 1 2.672 2.672zm0 0" style="opacity:.6"/>
</svg>
