<svg xmlns="http://www.w3.org/2000/svg" width="21.7" height="28.933" viewBox="0 0 21.7 28.933">
    <path data-name="Icon awesome-hourglass-half" d="M20.344 0H1.356A1.356 1.356 0 0 0 0 1.356v.9a1.356 1.356 0 0 0 1.356 1.361c0 5.14 2.883 9.479 6.829 10.85-3.946 1.371-6.829 5.71-6.829 10.85A1.356 1.356 0 0 0 0 26.673v.9a1.356 1.356 0 0 0 1.356 1.356h18.988a1.356 1.356 0 0 0 1.356-1.352v-.9a1.356 1.356 0 0 0-1.356-1.356c0-5.14-2.883-9.479-6.829-10.85 3.946-1.371 6.829-5.71 6.829-10.85A1.356 1.356 0 0 0 21.7 2.26v-.9A1.356 1.356 0 0 0 20.344 0zM16.1 21.7H5.6c.964-2.645 2.944-4.521 5.251-4.521s4.286 1.876 5.249 4.521zm0-14.467H5.6a10.6 10.6 0 0 1-.626-3.617h11.753a10.6 10.6 0 0 1-.627 3.617z" style="fill:#60d049"/>
</svg>
