<svg xmlns="http://www.w3.org/2000/svg" width="30.608" height="30.608" viewBox="0 0 30.608 30.608">
    <path data-name="linkedin (1)" d="M27.839 0H2.769A2.769 2.769 0 0 0 0 2.769v25.07a2.769 2.769 0 0 0 2.769 2.769h25.07a2.769 2.769 0 0 0 2.769-2.769V2.769A2.769 2.769 0 0 0 27.839 0zM9.471 26.429a.806.806 0 0 1-.806.806H5.236a.806.806 0 0 1-.806-.806V12.051a.806.806 0 0 1 .806-.806h3.43a.806.806 0 0 1 .806.806zM6.951 9.89a3.258 3.258 0 1 1 3.258-3.258A3.258 3.258 0 0 1 6.951 9.89zM27.4 26.494a.741.741 0 0 1-.741.741h-3.68a.741.741 0 0 1-.741-.741V19.75c0-1.006.3-4.409-2.629-4.409-2.268 0-2.728 2.329-2.821 3.374v7.778a.741.741 0 0 1-.741.741h-3.56a.741.741 0 0 1-.741-.741V11.986a.741.741 0 0 1 .741-.741h3.56a.741.741 0 0 1 .741.741v1.254c.837-1.262 2.087-2.24 4.748-2.24 5.893 0 5.86 5.506 5.86 8.531v6.959z" style="fill:#0077b7"/>
</svg>
