<svg xmlns="http://www.w3.org/2000/svg" width="22.265" height="18.844" viewBox="0 0 22.265 18.844">
    <defs>
        <style>
            .cls-1{fill:#262626}
        </style>
    </defs>
    <g id="Icon_ionic-ios-log-out" data-name="Icon ionic-ios-log-out" transform="translate(-3.375 -5.625)">
        <path id="Path_16137" data-name="Path 16137" class="cls-1" d="M17.508 21.257a.752.752 0 0 0-.749.749.966.966 0 0 1-.964.964H5.838a.966.966 0 0 1-.964-.964V8.088a.966.966 0 0 1 .964-.964H15.8a.966.966 0 0 1 .964.964.749.749 0 0 0 1.5 0A2.463 2.463 0 0 0 15.8 5.625H5.838a2.463 2.463 0 0 0-2.463 2.463v13.919a2.463 2.463 0 0 0 2.463 2.463H15.8a2.463 2.463 0 0 0 2.463-2.463.752.752 0 0 0-.755-.75z"/>
        <path id="Path_16138" data-name="Path 16138" class="cls-1" d="M22.446 11.048a.745.745 0 0 0-.53-.219.732.732 0 0 0-.53.219.746.746 0 0 0 0 1.06l3.491 3.437H11.156a.749.749 0 0 0 0 1.5h13.737l-3.4 3.432a.756.756 0 0 0 0 1.06l.005.005a.774.774 0 0 0 .525.209.723.723 0 0 0 .53-.219l4.422-4.411a1.052 1.052 0 0 0 0-1.563z" transform="translate(-1.678 -1.242)"/>
    </g>
</svg>
