<svg xmlns="http://www.w3.org/2000/svg" width="18.167" height="18.167" viewBox="0 0 18.167 18.167">
    <path data-name="Icon awesome-medal" d="M7.939 4.639 5.486.551A1.135 1.135 0 0 0 4.513 0H.569A.568.568 0 0 0 .1.893l3.948 5.64a7.343 7.343 0 0 1 3.891-1.894zM17.6 0h-3.946a1.135 1.135 0 0 0-.974.551l-2.452 4.088a7.345 7.345 0 0 1 3.887 1.894l3.948-5.64A.568.568 0 0 0 17.6 0zM9.083 5.677a6.245 6.245 0 1 0 6.245 6.245 6.245 6.245 0 0 0-6.245-6.245zm3.283 5.58-1.346 1.311.318 1.853a.407.407 0 0 1-.591.429l-1.664-.875-1.664.875a.407.407 0 0 1-.591-.429l.318-1.853L5.8 11.257a.408.408 0 0 1 .225-.7l1.86-.271.833-1.686a.408.408 0 0 1 .731 0l.831 1.686 1.86.271a.408.408 0 0 1 .225.7z" style="fill:#8c8c96"/>
</svg>
