<svg xmlns="http://www.w3.org/2000/svg" width="23.368" height="14.021" viewBox="0 0 23.368 14.021">
    <path data-name="Icon awesome-money-bill-alt" d="M12.852 12.679h-.584V9.466a.292.292 0 0 0-.292-.292h-.5a.875.875 0 0 0-.486.147l-.56.373a.292.292 0 0 0-.081.4l.324.486a.292.292 0 0 0 .4.081l.017-.011v2.024h-.584a.292.292 0 0 0-.292.292v.584a.292.292 0 0 0 .292.292h2.337a.292.292 0 0 0 .292-.292v-.584a.292.292 0 0 0-.283-.287zM22.2 4.5H1.168A1.169 1.169 0 0 0 0 5.668v11.684a1.169 1.169 0 0 0 1.168 1.168H22.2a1.169 1.169 0 0 0 1.168-1.168V5.668A1.169 1.169 0 0 0 22.2 4.5zM1.753 16.768v-2.337a2.337 2.337 0 0 1 2.337 2.337zm0-8.179V6.253h2.336a2.337 2.337 0 0 1-2.336 2.336zm9.931 7.01a3.831 3.831 0 0 1-3.505-4.089 3.831 3.831 0 0 1 3.505-4.089 3.831 3.831 0 0 1 3.505 4.089 3.831 3.831 0 0 1-3.505 4.09zm9.931 1.168h-2.337a2.337 2.337 0 0 1 2.337-2.337zm0-8.179a2.337 2.337 0 0 1-2.337-2.337h2.337z" transform="translate(0 -4.5)" style="fill:#8c8c96"/>
</svg>
