<svg xmlns="http://www.w3.org/2000/svg" width="54" height="26.12" viewBox="0 0 54 26.12">
    <g data-name="Group 3706">
        <path data-name="Path 15111" d="M-776.774 202.806a5.291 5.291 0 0 0 .537-.414q3.386-3.355 6.765-6.718a2.057 2.057 0 0 0 .576-2.169 1.988 1.988 0 0 0-1.548-1.429 2.106 2.106 0 0 0-2.054.662q-3.846 3.827-7.7 7.646-1.551 1.54-3.1 3.084a2.1 2.1 0 0 0-.01 3.208q5.411 5.39 10.838 10.765a2.094 2.094 0 0 0 3.057.069 2.1 2.1 0 0 0-.091-3.054q-3.392-3.387-6.8-6.76c-.136-.135-.291-.252-.437-.377l.044-.135h44.297a2.132 2.132 0 0 0 2.358-2.074 2.107 2.107 0 0 0-1.976-2.134c-.193-.012-.386-.005-.58-.005h-44.06z" transform="translate(784.044 -192.019)" style="fill:#fff"/>
    </g>
</svg>
