<svg id="Group_4282" data-name="Group 4282" xmlns="http://www.w3.org/2000/svg" width="40.948" height="33.026" viewBox="0 0 40.948 33.026">
    <defs>
        <style>
            .cls-1{fill:#262626}
        </style>
    </defs>
    <g id="Group_4281" data-name="Group 4281" transform="translate(4.928)">
        <path id="Path_16120" data-name="Path 16120" class="cls-1" d="M157.654-356.858h10.88a4.657 4.657 0 0 1 4.727 4.724v12.153a4.643 4.643 0 0 1-4.722 4.725q-8.967.01-17.933 0a1.612 1.612 0 0 0-1.037.344c-1.25.957-2.513 1.9-3.765 2.85a2.225 2.225 0 0 1-2.487.322 2.245 2.245 0 0 1-1.272-2.2q.01-9.1 0-18.192a4.658 4.658 0 0 1 4.726-4.725zm-13.208 22.806c1.3-.977 2.526-1.894 3.745-2.826a3.7 3.7 0 0 1 2.33-.778q8.948.009 17.9 0a2.268 2.268 0 0 0 2.444-2.459v-11.891a2.273 2.273 0 0 0-2.449-2.456h-21.5a2.277 2.277 0 0 0-2.468 2.475v17.48z" transform="translate(-142.044 361.66)"/>
        <path id="Path_16121" data-name="Path 16121" class="cls-1" d="M195.407-388.8h11.853a4.658 4.658 0 0 1 4.724 4.725v12a1.19 1.19 0 0 1-.818 1.211 1.116 1.116 0 0 1-1.325-.42 1.666 1.666 0 0 1-.245-.837c-.015-3.937-.01-7.875-.011-11.813a2.276 2.276 0 0 0-2.474-2.467h-23.669a2.354 2.354 0 0 1-.558-.037 1.2 1.2 0 0 1-.906-1.329 1.211 1.211 0 0 1 1.237-1.031q4.126-.005 8.252 0z" transform="translate(-175.965 388.801)"/>
        <path id="Path_16122" data-name="Path 16122" class="cls-1" d="M270.546-289.827a1.2 1.2 0 0 1-1.181-1.2 1.2 1.2 0 0 1 1.2-1.183 1.2 1.2 0 0 1 1.2 1.223 1.19 1.19 0 0 1-1.219 1.16z" transform="translate(-250.225 306.732)"/>
        <path id="Path_16123" data-name="Path 16123" class="cls-1" d="M207.67-289.826a1.193 1.193 0 0 1-1.209-1.174 1.187 1.187 0 0 1 1.2-1.215 1.209 1.209 0 0 1 1.2 1.191 1.2 1.2 0 0 1-1.191 1.198z" transform="translate(-196.778 306.732)"/>
        <path id="Path_16124" data-name="Path 16124" class="cls-1" d="M239.615-289.827A1.192 1.192 0 0 1 238.41-291a1.187 1.187 0 0 1 1.205-1.211 1.208 1.208 0 0 1 1.192 1.195 1.2 1.2 0 0 1-1.192 1.189z" transform="translate(-223.924 306.733)"/>
    </g>
    <g id="Path_16125" data-name="Path 16125" style="fill:#60d049">
        <path d="M8.213 14.926A6.72 6.72 0 0 1 1.5 8.213 6.72 6.72 0 0 1 8.213 1.5a6.72 6.72 0 0 1 6.713 6.713 6.72 6.72 0 0 1-6.713 6.713z" style="stroke:none" transform="translate(0 16.601)"/>
        <path d="M8.213 3A5.219 5.219 0 0 0 3 8.213a5.219 5.219 0 0 0 5.213 5.213 5.219 5.219 0 0 0 5.213-5.213A5.219 5.219 0 0 0 8.213 3m0-3a8.213 8.213 0 1 1 0 16.426A8.213 8.213 0 0 1 8.213 0z" style="fill:#f3f3f3;stroke:none" transform="translate(0 16.601)"/>
    </g>
</svg>
