<svg xmlns="http://www.w3.org/2000/svg" width="33.672" height="37.897" viewBox="0 0 33.672 37.897">
    <g data-name="Group 3030">
        <path d="M82.8 30.158a5.888 5.888 0 0 1-1.789-2.436c-1.542-3.263-1.865-7.859-1.865-11.14v-.043a10.753 10.753 0 0 0-6.33-9.752V4.222A4.223 4.223 0 0 0 68.6 0h-.349a4.223 4.223 0 0 0-4.215 4.222v2.565a10.753 10.753 0 0 0-6.33 9.795c0 3.281-.324 7.877-1.865 11.14a5.888 5.888 0 0 1-1.789 2.436 1.079 1.079 0 0 0-.593 1.228 1.13 1.13 0 0 0 1.113.868h8.138a5.716 5.716 0 0 0 11.432 0h8.138a1.13 1.13 0 0 0 1.113-.868 1.079 1.079 0 0 0-.593-1.228zM66.259 4.222a2 2 0 0 1 1.994-2h.347a2 2 0 0 1 1.994 2v1.844a10.753 10.753 0 0 0-4.338 0V4.222zm2.169 31.451a3.5 3.5 0 0 1-3.5-3.419h6.991a3.5 3.5 0 0 1-3.491 3.419zM72.9 30.03H57.1a11.637 11.637 0 0 0 .582-1.021c1.488-2.934 2.243-7.115 2.243-12.427a8.5 8.5 0 1 1 17 0v.041c0 5.29.759 9.456 2.243 12.382a11.644 11.644 0 0 0 .582 1.021z" transform="translate(-53.434)" style="fill:#262626"/>
        <g data-name="Path 16119" style="fill:#60d049">
            <path d="M8.213 14.926A6.72 6.72 0 0 1 1.5 8.213 6.72 6.72 0 0 1 8.213 1.5a6.72 6.72 0 0 1 6.713 6.713 6.72 6.72 0 0 1-6.713 6.713z" style="stroke:none" transform="translate(17.246 7.674)"/>
            <path d="M8.213 3A5.219 5.219 0 0 0 3 8.213a5.219 5.219 0 0 0 5.213 5.213 5.219 5.219 0 0 0 5.213-5.213A5.219 5.219 0 0 0 8.213 3m0-3a8.213 8.213 0 1 1 0 16.426A8.213 8.213 0 0 1 8.213 0z" style="fill:#f3f3f3;stroke:none" transform="translate(17.246 7.674)"/>
        </g>
    </g>
</svg>
