<svg id="paper" xmlns="http://www.w3.org/2000/svg" width="18.396" height="20.068" viewBox="0 0 18.396 20.068">
    <path id="Path_29" data-name="Path 29" d="M18.124 20.723H8.09A2.093 2.093 0 0 1 6 18.633V6.09A2.093 2.093 0 0 1 8.09 4h10.034a2.093 2.093 0 0 1 2.09 2.09v12.543a2.093 2.093 0 0 1-2.09 2.09zM8.09 4.836A1.256 1.256 0 0 0 6.836 6.09v12.543a1.256 1.256 0 0 0 1.254 1.254h10.034a1.256 1.256 0 0 0 1.254-1.254V6.09a1.256 1.256 0 0 0-1.254-1.254z" transform="translate(-1.819 -.655)"/>
    <path id="Path_30" data-name="Path 30" d="M3.927 17.559H3.09A2.093 2.093 0 0 1 1 15.469V2.09A2.093 2.093 0 0 1 3.09 0h10.034a2.093 2.093 0 0 1 2.09 2.09.418.418 0 0 1-.836 0A1.256 1.256 0 0 0 13.124.836H3.09A1.256 1.256 0 0 0 1.836 2.09v13.379a1.256 1.256 0 0 0 1.254 1.254h.836a.418.418 0 1 1 0 .836z" transform="translate(-1)"/>
    <path id="Path_31" data-name="Path 31" d="M17.107 16.836h-6.689a.418.418 0 0 1 0-.836h6.689a.418.418 0 0 1 0 .836z" transform="translate(-2.475 -2.621)"/>
    <path id="Path_32" data-name="Path 32" d="M17.107 20.836h-6.689a.418.418 0 0 1 0-.836h6.689a.418.418 0 1 1 0 .836z" transform="translate(-2.475 -3.277)"/>
    <path id="Path_33" data-name="Path 33" d="M17.107 12.836h-6.689a.418.418 0 0 1 0-.836h6.689a.418.418 0 0 1 0 .836z" transform="translate(-2.475 -1.966)"/>
    <path id="Path_34" data-name="Path 34" d="M17.107 8.836h-6.689a.418.418 0 0 1 0-.836h6.689a.418.418 0 0 1 0 .836z" transform="translate(-2.475 -1.311)"/>
</svg>
