<svg xmlns="http://www.w3.org/2000/svg" width="12.937" height="18.136" viewBox="0 0 12.937 18.136">
    <g data-name="Group 4286">
        <path data-name="Path 16126" d="M-404.21-152.987a6.546 6.546 0 0 1 6.3 5.109 7.12 7.12 0 0 1-.584 4.69 18.3 18.3 0 0 1-2.08 3.273c-.912 1.215-1.864 2.4-2.665 3.7-.229.37-.437.753-.651 1.132-.073.129-.153.24-.32.237a.345.345 0 0 1-.3-.233 32.12 32.12 0 0 0-2.814-4.251 28.75 28.75 0 0 1-2.3-3.426 8.194 8.194 0 0 1-1-2.991 6.3 6.3 0 0 1 .975-4.214 6.368 6.368 0 0 1 4.417-2.915c.332-.065.677-.077 1.022-.111zm3.4 6.5a3.4 3.4 0 0 0-3.384-3.4 3.408 3.408 0 0 0-3.4 3.388 3.407 3.407 0 0 0 3.386 3.4 3.4 3.4 0 0 0 3.394-3.384z" transform="translate(410.68 152.987)" style="fill:#8c8c96"/>
    </g>
</svg>
