<svg xmlns="http://www.w3.org/2000/svg" width="24.628" height="24.628" viewBox="0 0 24.628 24.628">
    <path d="M12.068 13.079c.081 0 .163.005.245.005h.228a10.594 10.594 0 0 1 4.914 1.326.962.962 0 0 0 .936-1.681 12.422 12.422 0 0 0-2.161-.945 6.542 6.542 0 1 0-7.83 0A12.51 12.51 0 0 0 .062 21.1a2.923 2.923 0 0 0 2.857 3.525h7.519a.962.962 0 0 0 0-1.924H2.919a.978.978 0 0 1-.77-.366 1 1 0 0 1-.2-.843 10.629 10.629 0 0 1 10.119-8.413zM7.7 6.542a4.618 4.618 0 1 1 4.847 4.612h-.454A4.623 4.623 0 0 1 7.7 6.542zm16.928 11.344a2.378 2.378 0 0 1-.707 1.7l-1.789 1.779A.962.962 0 1 1 20.774 20l1.2-1.193h-5.452a1.948 1.948 0 0 0-.023 3.9.962.962 0 0 1 0 1.924 3.811 3.811 0 0 1-2.73-1.138 3.88 3.88 0 0 1 2.753-6.606h5.364l-1.109-1.1a.962.962 0 1 1 1.353-1.368l1.787 1.767a2.378 2.378 0 0 1 .711 1.7zm0 0" style="fill:#60d049"/>
</svg>
