<svg xmlns="http://www.w3.org/2000/svg" width="31.501" height="20.243" viewBox="0 0 31.501 20.243">
    <g data-name="Group 4555">
        <path data-name="Icon ionic-ios-arrow-round-down" d="M13.242 12.909a.919.919 0 0 0-1.294-.007L7.666 17.17V.907a.914.914 0 0 0-1.828 0V17.17l-4.286-4.275a.925.925 0 0 0-1.294.007.91.91 0 0 0 .007 1.287l5.836 5.794a1.026 1.026 0 0 0 .288.19.872.872 0 0 0 .352.07.916.916 0 0 0 .64-.26l5.836-5.794a.9.9 0 0 0 .025-1.28zM31.242 7.334a.919.919 0 0 1-1.294.007l-4.282-4.268v16.263a.914.914 0 0 1-1.828 0V3.073l-4.286 4.275a.925.925 0 0 1-1.294-.007.91.91 0 0 1 .007-1.287L24.101.26a1.026 1.026 0 0 1 .288-.19.872.872 0 0 1 .352-.07.916.916 0 0 1 .64.26l5.836 5.794a.9.9 0 0 1 .025 1.28z"/>
    </g>
</svg>
