<svg data-name="twitter (5)" xmlns="http://www.w3.org/2000/svg" width="30.608" height="30.608" viewBox="0 0 30.608 30.608">
    <rect data-name="Rectangle 323" width="30.608" height="30.608" rx="3" style="fill:#50abf1"/>
    <path data-name="Path 619" d="M60.359 109.153a12.733 12.733 0 0 0 6.319 1.647c6.529 0 11.821-4.764 11.821-10.639q0-.22-.01-.437a8.868 8.868 0 0 0 2.055-1.9 10.433 10.433 0 0 1-2.347.548h-.007.006c.107-.064 1.6-.98 1.8-2.072a15.291 15.291 0 0 1-2.013.756c-.194.058-.4.115-.608.168a4.362 4.362 0 0 0-3.028-1.181 3.956 3.956 0 0 0-4.147 3.729 3.37 3.37 0 0 0 .107.846 13.141 13.141 0 0 1-8.507-3.873s-1.983 2.436 1.181 4.941a4.635 4.635 0 0 1-1.792-.481s-.3 2.951 3.278 3.706a4.2 4.2 0 0 1-1.83.069 3.966 3.966 0 0 0 3.812 2.607 8.53 8.53 0 0 1-6.091 1.566z" transform="translate(-55.147 -87.75)" style="fill:#fff"/>
</svg>
