<svg xmlns="http://www.w3.org/2000/svg" width="13.326" height="15.973" viewBox="0 0 13.326 15.973">
    <g style="opacity:.6">
        <path data-name="Path 112" d="M6.563 7.695a3.723 3.723 0 0 0 2.721-1.128 3.722 3.722 0 0 0 1.127-2.72 3.723 3.723 0 0 0-1.127-2.72 3.846 3.846 0 0 0-5.44 0 3.723 3.723 0 0 0-1.127 2.72 3.722 3.722 0 0 0 1.127 2.72 3.723 3.723 0 0 0 2.719 1.128zm0 0"/>
        <path data-name="Path 113" d="M13.294 12.282a9.5 9.5 0 0 0-.129-1.009 7.952 7.952 0 0 0-.248-1.015 5.012 5.012 0 0 0-.417-.946 3.572 3.572 0 0 0-.629-.82 2.773 2.773 0 0 0-.9-.568 3.123 3.123 0 0 0-1.154-.209 1.171 1.171 0 0 0-.625.265 85.47 85.47 0 0 1-.651.42 3.731 3.731 0 0 1-.843.371 3.273 3.273 0 0 1-2.062 0 3.722 3.722 0 0 1-.846-.372c-.242-.155-.462-.3-.652-.42a1.169 1.169 0 0 0-.625-.265 3.12 3.12 0 0 0-1.153.209 2.772 2.772 0 0 0-.9.568 3.573 3.573 0 0 0-.629.82 5.022 5.022 0 0 0-.417.947 7.972 7.972 0 0 0-.248 1.015 9.47 9.47 0 0 0-.129 1.01 13.83 13.83 0 0 0-.032.943 2.652 2.652 0 0 0 .788 2.007 2.836 2.836 0 0 0 2.03.74h7.691a2.835 2.835 0 0 0 2.03-.74 2.651 2.651 0 0 0 .788-2.007c0-.322-.011-.639-.032-.943zm0 0"/>
    </g>
</svg>
